<?xml version="1.0" encoding="UTF-8"?>
<svg version="1.1" xmlns="http://www.w3.org/2000/svg" width="150" height="150">
<path d="M0 0 C-2.44605327 2.74874213 -5.09028437 4.25590493 -8.3125 6 C-15.79465995 10.27292245 -22.35655294 15.54101227 -29 21 C-29.56493164 21.4547168 -30.12986328 21.90943359 -30.71191406 22.37792969 C-33.80569118 24.8046665 -33.80569118 24.8046665 -36 28 C-34.63875 28.0928125 -34.63875 28.0928125 -33.25 28.1875 C-29.22830776 29.19292306 -28.23832205 30.60106652 -26 34 C-24.39134225 37.21731551 -24.53303867 40.5107612 -25 44 C-26.85115816 47.70231632 -28.03535716 49.51767858 -31.75 51.375 C-32.4925 51.58125 -33.235 51.7875 -34 52 C-34 52.66 -34 53.32 -34 54 C-33.278125 54.061875 -32.55625 54.12375 -31.8125 54.1875 C-28.1002435 55.25992966 -26.48778932 57.09757913 -24 60 C-22.53980634 64.38058099 -22.25936431 68.43159296 -23 73 C-25.3632615 77.21846026 -28.48330495 80.23122432 -33 82 C-37.72008735 82.80906524 -42.24263568 83.11892162 -47.02734375 83.09765625 C-48.31318359 83.09443359 -49.59902344 83.09121094 -50.92382812 83.08789062 C-52.26171945 83.07953802 -53.59961007 83.07107311 -54.9375 83.0625 C-56.30273274 83.05747659 -57.66796726 83.05291517 -59.03320312 83.04882812 C-62.35551457 83.03708851 -65.67773408 83.02066679 -69 83 C-69 82.01 -69 81.02 -69 80 C-68.195625 79.87625 -67.39125 79.7525 -66.5625 79.625 C-65.2940625 79.315625 -65.2940625 79.315625 -64 79 C-62.59087904 76.18175808 -62.88816447 73.82748718 -62.90234375 70.6796875 C-62.90717773 68.79443359 -62.90717773 68.79443359 -62.91210938 66.87109375 C-62.92048828 65.55238281 -62.92886719 64.23367187 -62.9375 62.875 C-62.94251511 61.53515789 -62.94707799 60.195314 -62.95117188 58.85546875 C-62.96298914 55.57026794 -62.97946383 52.28515603 -63 49 C-63.7425 49.66 -64.485 50.32 -65.25 51 C-68 53 -68 53 -72 53 C-73.125 46.25 -73.125 46.25 -72 44 C-71.34 44 -70.68 44 -70 44 C-70 45.32 -70 46.64 -70 48 C-64.22043286 43.92615038 -59.04751896 39.36222822 -53.8515625 34.57421875 C-50.27170105 31.34253561 -46.56154273 28.30376242 -42.8046875 25.28125 C-40.89156612 23.72517355 -39.00157892 22.14032408 -37.1328125 20.53125 C-11.51430488 -1.48571676 -11.51430488 -1.48571676 0 0 Z M-47.4765625 34.734375 C-50.64447024 39.44562241 -49.46890938 45.56660564 -49 51 C-44.2102679 51.23428313 -44.2102679 51.23428313 -40 49 C-38.98297883 45.9489365 -38.83417917 43.75800939 -38.8125 40.5625 C-38.79123047 39.14130859 -38.79123047 39.14130859 -38.76953125 37.69140625 C-39.00385482 34.95498356 -39.60298617 33.33571877 -41 31 C-43.52473891 31 -45.6541124 33.2020292 -47.4765625 34.734375 Z M-49 55 C-49 62.92 -49 70.84 -49 79 C-42.42950902 79.70778554 -42.42950902 79.70778554 -39.625 77.1875 C-36.39331493 72.83715472 -36.48434522 68.20989139 -37 63 C-38.34215051 59.64462373 -39.45789202 57.54210798 -42 55 C-44.31 55 -46.62 55 -49 55 Z " fill="#FFFFFF" transform="translate(136,42)"/>
<path d="M0 0 C8.91 0 17.82 0 27 0 C27 0.99 27 1.98 27 3 C25.35 3.33 23.7 3.66 22 4 C21.67 10.6 21.34 17.2 21 24 C26.28 24 31.56 24 37 24 C36.67 17.4 36.34 10.8 36 4 C33.525 3.505 33.525 3.505 31 3 C31 2.01 31 1.02 31 0 C39.91 0 48.82 0 58 0 C58 0.99 58 1.98 58 3 C56.02 3 54.04 3 52 3 C52.00636475 4.08418213 52.01272949 5.16836426 52.01928711 6.28540039 C52.03378542 10.33201799 52.00226432 14.37722668 51.95727539 18.42358398 C51.94418608 20.17027985 51.94335517 21.91711444 51.95532227 23.66381836 C52.05355483 40.06865684 52.05355483 40.06865684 47.78125 44.40625 C45.86889648 45.82641602 45.86889648 45.82641602 44 47 C43.05253906 47.80308594 42.10507813 48.60617188 41.12890625 49.43359375 C40.28199219 50.09488281 39.43507812 50.75617188 38.5625 51.4375 C37.26505859 52.45650391 37.26505859 52.45650391 35.94140625 53.49609375 C35.30074219 53.99238281 34.66007812 54.48867187 34 55 C33.34 54.34 32.68 53.68 32 53 C32.28875 52.33613281 32.5775 51.67226562 32.875 50.98828125 C33.24625 50.10527344 33.6175 49.22226563 34 48.3125 C34.37125 47.44238281 34.7425 46.57226562 35.125 45.67578125 C36.01870488 42.9427998 36.16449676 40.85299066 36 38 C29.08607644 38.31297596 24.36230524 41.35974388 18.5625 44.9375 C17.60053711 45.51781982 16.63857422 46.09813965 15.64746094 46.69604492 C8.9616716 50.7444891 2.31721221 54.86740292 -4.25170898 59.10327148 C-8.78811803 62 -8.78811803 62 -11 62 C-10.47290039 60.23974609 -10.47290039 60.23974609 -9 58 C-7.1886214 57.06226965 -5.37404363 56.12957566 -3.53590393 55.24545288 C0.93801851 52.94414799 5.09163002 50.61933566 6.80877686 45.66784668 C7.89952052 38.92865985 7.36585365 32.15430274 6.9375 25.375 C6.86216807 23.30102278 6.79374259 21.22678252 6.73242188 19.15234375 C6.56796162 14.0950168 6.30981257 9.05042155 6 4 C3.03 3.505 3.03 3.505 0 3 C0 2.01 0 1.02 0 0 Z M21 28 C21 31.63 21 35.26 21 39 C21.73605469 38.57847656 22.47210938 38.15695313 23.23046875 37.72265625 C24.20628906 37.17480469 25.18210937 36.62695312 26.1875 36.0625 C27.15042969 35.51722656 28.11335938 34.97195312 29.10546875 34.41015625 C31.80662842 33.09420667 34.04356101 32.42698113 37 32 C37 30.68 37 29.36 37 28 C31.72 28 26.44 28 21 28 Z " fill="#FFFFFF" transform="translate(36,31)"/>
</svg>
