<?xml version="1.0" encoding="UTF-8"?>
<svg version="1.1" xmlns="http://www.w3.org/2000/svg" width="1284" height="1644">
<path d="M0 0 C423.72 0 847.44 0 1284 0 C1284 542.52 1284 1085.04 1284 1644 C860.28 1644 436.56 1644 0 1644 C0 1101.48 0 558.96 0 0 Z " fill="#000000" transform="translate(0,0)"/>
<path d="M0 0 C0.918322 -0.0034177 1.836644 -0.0068354 2.78279394 -0.01035666 C5.83692069 -0.01690599 8.89015385 0.00499174 11.94419861 0.0269165 C14.14254231 0.02804562 16.34088752 0.02740987 18.53923035 0.02514648 C24.49111987 0.02400092 30.4426856 0.04748513 36.39450002 0.07544231 C42.62047631 0.10048198 48.84646038 0.1028 55.07247925 0.10754395 C65.51724225 0.11855562 75.96189472 0.14352429 86.40660095 0.17926025 C97.16115225 0.21601791 107.91567133 0.24431123 118.67027283 0.2612915 C119.66587608 0.26286784 119.66587608 0.26286784 120.68159253 0.26447603 C124.01160452 0.26969646 127.34161672 0.27474219 130.67162907 0.27972364 C158.26509081 0.32151084 185.85842054 0.39184835 213.45176697 0.48101807 C212.97624401 2.07502517 212.50001209 3.66882078 212.02348328 5.26252747 C211.75835812 6.15009515 211.49323296 7.03766283 211.2200737 7.9521265 C210.28320001 11.03585839 209.26668042 14.08613575 208.21739197 17.13336182 C207.81165955 18.31245117 207.40592712 19.49154053 206.98789978 20.70635986 C206.35126404 22.54387817 206.35126404 22.54387817 205.70176697 24.41851807 C205.4817804 25.05552643 205.26179382 25.69253479 205.03514099 26.34884644 C202.07669121 34.91337911 199.03018153 43.43989132 195.85728455 51.92755127 C193.64684765 57.86945205 191.62253964 63.8624556 189.63902283 69.88336182 C188.06285818 74.66320171 186.44484257 79.42437465 184.76426697 84.16851807 C184.53392761 84.8190918 184.30358826 85.46966553 184.06626892 86.13995361 C182.51240414 90.51666442 180.94779801 94.88951049 179.3822937 99.2620697 C178.36736132 102.09888603 177.35492606 104.93659072 176.34272766 107.77438354 C175.83306487 109.20106979 175.32218458 110.62732171 174.81007385 112.0531311 C174.08624004 114.06845678 173.366284 116.0851303 172.64707947 118.10211182 C172.2244281 119.28216797 171.80177673 120.46222412 171.36631775 121.67803955 C170.34837199 124.30650932 170.34837199 124.30650932 170.45176697 126.48101807 C171.04602478 125.63281494 171.64028259 124.78461182 172.25254822 123.91070557 C177.97309518 115.79608166 183.94709302 107.93901304 190.12120056 100.16607666 C192.60641077 97.01875174 195.0382552 93.83043193 197.47789001 90.64776611 C201.05121931 85.99152551 204.65620197 81.36037317 208.26426697 76.73101807 C214.55458924 68.6561708 220.77989394 60.53314478 226.98936462 52.39605713 C233.62369612 43.70829482 240.32195996 35.07125896 247.04234314 26.45001221 C251.85993468 20.26179122 256.62768009 14.03648451 261.36509705 7.78668213 C262.12729553 6.78459717 262.12729553 6.78459717 262.90489197 5.76226807 C263.3499408 5.1751001 263.79498962 4.58793213 264.25352478 3.98297119 C265.45176697 2.48101807 265.45176697 2.48101807 267.45176697 0.48101807 C270.0080719 0.24050903 270.0080719 0.24050903 273.27842712 0.25396729 C275.11009933 0.25419388 275.11009933 0.25419388 276.97877502 0.25442505 C278.31612815 0.26463904 279.65347962 0.27507104 280.99082947 0.28570557 C282.35560398 0.28943526 283.72038116 0.29228244 285.0851593 0.29428101 C288.6789742 0.30192093 292.2726277 0.32157235 295.86637878 0.34368896 C299.53284013 0.36413975 303.19932754 0.37328107 306.86582947 0.38336182 C314.06121559 0.40481803 321.25646867 0.43895815 328.45176697 0.48101807 C322.19074378 8.89193283 322.19074378 8.89193283 319.08457947 12.62945557 C318.51263855 13.31990967 317.94069763 14.01036377 317.35142517 14.72174072 C316.47296936 15.77820801 316.47296936 15.77820801 315.57676697 16.85601807 C314.34341856 18.35058243 313.11034419 19.84537299 311.87754822 21.34039307 C309.88372038 23.75417533 307.88278179 26.16138153 305.86973572 28.55914307 C305.17493103 29.39961182 304.48012634 30.24008057 303.76426697 31.10601807 C302.89221619 32.1462915 302.89221619 32.1462915 302.00254822 33.20758057 C297.27986967 40.13100352 295.19751722 48.80978845 292.51426697 56.66851807 C292.08025305 57.93226925 291.6460097 59.19594167 291.21153259 60.45953369 C289.25170289 66.17248188 287.31134244 71.89067781 285.41661072 77.62554932 C283.01933074 84.84270625 280.4080897 91.97985835 277.80723572 99.12554932 C275.24053589 106.20822961 272.8067308 113.32535707 270.45176697 120.48101807 C269.78580013 122.48125121 269.11931774 124.48131299 268.45176697 126.48101807 C275.76268953 117.16040147 282.99966067 107.79323577 290.07676697 98.29351807 C294.96540019 91.7351358 299.95410205 85.28389644 305.10020447 78.92608643 C309.74658055 73.16586379 314.1682279 67.24744058 318.58848572 61.31304932 C321.95212355 56.79937303 325.38607986 52.34251676 328.82676697 47.88726807 C331.30394039 44.67837572 333.76235557 41.45536644 336.22032166 38.23175049 C350.10570498 20.0259736 350.10570498 20.0259736 353.92637634 15.58917236 C355.62679061 13.39154949 355.62679061 13.39154949 356.91465759 10.19512939 C359.01983678 5.97108249 361.22471059 2.76409755 365.45176697 0.48101807 C374.84124826 -1.62718247 384.85845879 -0.80358051 394.41569519 -0.41162109 C398.02829579 -0.2776548 401.64207631 -0.21905917 405.25645447 -0.15374756 C412.32445648 -0.01509741 419.38764003 0.20618643 426.45176697 0.48101807 C424.60512076 4.37628742 422.14004446 7.57282907 419.45176697 10.91851807 C418.45249719 12.1758763 417.4538117 13.43369908 416.45567322 14.69195557 C415.95181091 15.32585205 415.44794861 15.95974854 414.92881775 16.612854 C412.72276171 19.40305909 410.55337834 22.2207266 408.38926697 25.04351807 C407.98055359 25.57590088 407.57184021 26.10828369 407.15074158 26.65679932 C405.91708924 28.26436679 404.68428323 29.87257945 403.45176697 31.48101807 C398.30320739 38.19990876 393.13336664 44.89880335 387.88926697 51.54351807 C384.51913201 55.81501596 381.20272091 60.11743818 377.95176697 64.48101807 C374.33770773 69.32961436 370.63676541 74.09894063 366.89146423 78.8460083 C358.19871549 89.86441573 349.60864774 100.96298869 341.06114197 112.09429932 C337.95615502 116.13054015 334.82905978 120.14955026 331.70176697 124.16851807 C331.10952332 124.92962891 330.51727966 125.69073975 329.90708923 126.47491455 C326.90663842 130.32974748 323.90445847 134.18322683 320.90098572 138.03570557 C314.37370375 146.4125499 307.87968014 154.81269325 301.4495697 163.26446533 C300.93853699 163.9353418 300.42750427 164.60621826 299.90098572 165.29742432 C299.45070007 165.8898291 299.00041443 166.48223389 298.53648376 167.09259033 C297.45176697 168.48101807 297.45176697 168.48101807 296.45176697 169.48101807 C293.74338611 169.57616398 291.06058183 169.60656739 288.35191345 169.59454346 C287.50320679 169.59468948 286.65450012 169.59483551 285.78007507 169.59498596 C282.96097806 169.59428655 280.14194626 169.58649284 277.32286072 169.57867432 C275.3737288 169.57681024 273.42459642 169.57538629 271.47546387 169.5743866 C266.33469865 169.57056062 261.19396149 169.56072966 256.0532074 169.54968262 C250.81171549 169.53947021 245.57021907 169.53488934 240.32872009 169.52984619 C230.03639003 169.51910746 219.74408083 169.50203008 209.45176697 169.48101807 C209.91797327 167.74119251 210.38643258 166.00197059 210.8558197 164.26300049 C211.11644699 163.29440598 211.37707428 162.32581146 211.64559937 161.3278656 C212.75434125 157.41252703 214.10551632 153.60903452 215.51426697 149.79351807 C217.50154793 144.40233018 219.13874481 139.07863884 220.45176697 133.48101807 C212.24687002 142.95012106 212.24687002 142.95012106 204.26426697 152.60601807 C203.66952072 153.33117615 203.07477448 154.05633423 202.46200562 154.8034668 C200.3721351 157.45909253 200.3721351 157.45909253 198.75683594 160.54089355 C193.95493015 168.57901677 193.95493015 168.57901677 189.59591293 170.14976501 C184.13203638 171.18092079 178.60055362 170.85795571 173.07286072 170.65289307 C171.29216253 170.63048063 169.51138979 170.61341366 167.73059082 170.60144043 C163.0678837 170.55585636 158.40974146 170.43821601 153.74882507 170.30499268 C148.98311624 170.18170739 144.21666138 170.12731928 139.44981384 170.06695557 C130.11513756 169.93867838 120.78383336 169.73418381 111.45176697 169.48101807 C112.17727574 164.8328566 113.30463856 160.51061496 114.81504822 156.06304932 C115.04830307 155.36515793 115.28155792 154.66726654 115.5218811 153.94822693 C116.01487302 152.47594584 116.51001477 151.00438305 117.00718689 149.5335083 C117.75566966 147.31895513 118.49788089 145.1023832 119.23887634 142.88531494 C121.57063602 135.9283448 123.95875061 129.00004368 126.49253845 122.11358643 C128.33716739 117.05106826 130.0752115 111.95132014 131.82676697 106.85601807 C132.24450378 105.64268799 132.6622406 104.42935791 133.09263611 103.17926025 C137.04146308 91.70221108 140.96593888 80.21680319 144.88926697 68.73101807 C145.19394897 67.83920837 145.49863098 66.94739868 145.81254578 66.02856445 C146.69140629 63.45556789 147.56973785 60.88239145 148.44786072 58.30914307 C148.70688675 57.55076141 148.96591278 56.79237976 149.23278809 56.01101685 C150.51597983 52.24849106 151.78761701 48.48244514 153.04345703 44.71069336 C153.44125665 43.5162668 153.44125665 43.5162668 153.84709263 42.29771042 C154.04663516 41.69820194 154.24617769 41.09869347 154.45176697 40.48101807 C136.82305295 40.51819729 119.19458158 40.57807637 101.56604576 40.66492081 C93.38065134 40.70471671 85.19535314 40.73710636 77.00987244 40.75201416 C69.87473128 40.76502787 62.73980179 40.79198519 55.60477984 40.83563113 C51.82738837 40.8582525 48.05025803 40.87392836 44.27279282 40.87290192 C40.71528941 40.87215568 37.15836337 40.8900908 33.60100937 40.9221859 C31.67705541 40.93472999 29.75300455 40.92761796 27.82902527 40.9198761 C21.43118442 40.99710501 17.2767094 41.09024268 12.45176697 45.48101807 C9.55921101 48.50392526 8.94787491 50.91072505 8.57676697 55.04351807 C8.47622009 55.99355713 8.37567322 56.94359619 8.27207947 57.92242432 C8.21298768 60.48930859 8.21298768 60.48930859 9.72957706 62.11811256 C12.68874472 64.4599367 16.33793188 63.87496657 19.95542908 63.83404541 C20.82416656 63.8362056 21.69290405 63.83836578 22.58796692 63.84059143 C24.47697936 63.84368164 26.36601182 63.84006301 28.25500298 63.83057785 C31.25380018 63.81684248 34.25193515 63.8232778 37.25073242 63.8354187 C45.77782965 63.86636977 54.30477555 63.86161522 62.83189392 63.84136963 C68.04861427 63.83039165 73.26484097 63.84377825 78.481493 63.87126541 C80.46161662 63.87667555 82.44179054 63.87272054 84.42187309 63.85886765 C108.21420319 63.69449447 108.21420319 63.69449447 116.75460815 71.61734009 C122.14742214 77.48663654 123.11933742 81.93458928 122.93223572 89.86383057 C122.18245311 100.69192128 117.20278888 111.3800107 113.02207947 121.27008057 C111.21638617 125.55529487 109.55424215 129.86466556 107.98692322 134.24273682 C107.57893494 135.38162354 107.17094666 136.52051025 106.75059509 137.69390869 C105.92311024 140.01949409 105.1028465 142.34766094 104.28965759 144.67828369 C100.88265484 154.1266803 97.39265461 162.35632351 88.47911072 167.60601807 C84.18303001 169.46020319 79.93708315 169.60525308 75.30776978 169.60127258 C74.07242996 169.60264725 72.83709015 169.60402191 71.5643158 169.60543823 C70.20347571 169.60189958 68.84263587 169.59826478 67.48179626 169.59454346 C66.04265342 169.59426125 64.60351043 169.59441997 63.16436768 169.59498596 C59.26394906 169.59527264 55.36356125 169.58939677 51.46314979 169.582412 C47.38455344 169.57615698 43.30595636 169.57557296 39.22735596 169.5743866 C31.5068348 169.57127962 23.78632781 169.56307477 16.06581289 169.55303711 C7.27505599 169.5418563 -1.5157016 169.53636056 -10.30646384 169.53134167 C-28.3870616 169.52089163 -46.46764618 169.50330445 -64.54823303 169.48101807 C-63.38385097 163.76256618 -61.94508543 158.30210478 -59.94667053 152.82086182 C-59.70534393 152.14551895 -59.46401733 151.47017609 -59.21537781 150.77436829 C-58.45636519 148.65390351 -57.68996048 146.53620381 -56.92323303 144.41851807 C-56.40190425 142.96622186 -55.88106683 141.51374918 -55.36073303 140.06109619 C-54.09555918 136.53235046 -52.82374927 133.00604059 -51.54823303 129.48101807 C-50.2461087 129.47293121 -48.94398438 129.46484436 -47.60240173 129.45651245 C-35.33091817 129.37902678 -23.05954515 129.29128115 -10.7882061 129.19349098 C-4.4793963 129.14354588 1.8293969 129.09721547 8.13829041 129.05914307 C14.22674412 129.02226801 20.31505837 128.97590161 26.40339279 128.92295456 C28.72617521 128.9044225 31.04898752 128.88931016 33.37181473 128.8776741 C36.62533601 128.86079164 39.8785387 128.83175103 43.13194275 128.79986572 C44.09219864 128.79770554 45.05245453 128.79554535 46.04180908 128.7933197 C52.03163997 128.71833393 56.74772211 128.06387359 62.01426697 124.98101807 C65.50885595 121.39682424 67.90787339 117.2523844 69.45176697 112.48101807 C69.39540246 109.80580303 69.39540246 109.80580303 68.45176697 107.48101807 C64.61024667 104.92000453 61.47616413 105.20307712 57.02403259 105.22564697 C55.73314728 105.22021629 55.73314728 105.22021629 54.41618347 105.2146759 C52.54518698 105.20777811 50.67417035 105.20527718 48.80316162 105.20662308 C45.83412617 105.20758833 42.8654528 105.19464312 39.89646912 105.17764282 C31.45399343 105.13139052 23.01155243 105.10679443 14.56895447 105.10015869 C9.40412994 105.0951204 4.23967923 105.07074565 -0.92501831 105.034832 C-2.886411 105.02508016 -4.84785544 105.02267665 -6.80926514 105.02800369 C-29.68717958 105.0871816 -29.68717958 105.0871816 -38.98573303 98.16851807 C-44.73622106 92.13751843 -46.29477841 87.13953805 -46.29945374 78.88946533 C-45.8680742 67.96156917 -41.37899441 57.59532368 -37.54823303 47.48101807 C-35.85276002 42.98160392 -34.17607504 38.48689178 -32.67323303 33.91851807 C-32.33163147 32.90144775 -31.99002991 31.88437744 -31.63807678 30.83648682 C-30.86452289 28.45482804 -30.13159489 26.05980294 -29.42713928 23.65679932 C-27.00792195 15.54364428 -24.55761873 7.77786167 -16.69696242 3.46538186 C-10.96158732 0.70414299 -6.32142955 -0.08752974 0 0 Z " fill="#FBFBFB" transform="translate(227.54823303222656,675.5189819335938)"/>
<path d="M0 0 C99.99 0 199.98 0 303 0 C299.62518741 11.24937531 299.62518741 11.24937531 298.02734375 16.015625 C297.68509766 17.03914062 297.34285156 18.06265625 296.99023438 19.1171875 C296.64283203 20.15101563 296.29542969 21.18484375 295.9375 22.25 C295.4105957 23.82394531 295.4105957 23.82394531 294.87304688 25.4296875 C294.2206765 27.37816614 293.56768372 29.3264366 292.91381836 31.27441406 C291.93905557 34.18177493 290.96968602 37.09094195 290 40 C267.56 40.33 245.12 40.66 222 41 C214.54305961 61.54625064 207.17457595 82.0996868 200.10253906 102.78076172 C198.43495703 107.6498354 196.75196695 112.51348143 195.0625 117.375 C194.75119141 118.27081787 194.43988281 119.16663574 194.11914062 120.08959961 C190.71374664 129.86126459 187.24344633 139.61006493 183.76782227 149.35693359 C183.42676956 150.31490845 183.42676956 150.31490845 183.0788269 151.29223633 C182.46099881 153.02757578 181.84222896 154.76257985 181.22338867 156.49755859 C179.77283528 160.65035025 178.391035 164.82689501 177 169 C161.49 169 145.98 169 130 169 C130.99 166.03 131.98 163.06 133 160 C133.30421875 159.07574219 133.6084375 158.15148437 133.921875 157.19921875 C138.05793249 144.65447834 142.44505547 132.18797094 146.98828125 119.78515625 C150.04423901 111.37242311 152.99278308 102.91990334 155.91796875 94.4609375 C159.30918391 84.65849037 162.71338743 74.86821322 166.39038086 65.16845703 C169.50973546 56.85083432 172.18335949 48.44992154 175 40 C127.81 40.33 80.62 40.66 32 41 C28.535 50.9 28.535 50.9 25 61 C52.72 61 80.44 61 109 61 C108.3636979 64.18151049 107.76976271 66.94576699 106.765625 69.96875 C106.40247192 71.06388916 106.40247192 71.06388916 106.03198242 72.18115234 C105.77392822 72.94637207 105.51587402 73.7115918 105.25 74.5 C104.98485596 75.29229004 104.71971191 76.08458008 104.4465332 76.90087891 C102.45229489 82.80201406 100.2902059 88.6128823 97.98046875 94.3984375 C96.87003817 97.19350324 96.87003817 97.19350324 96 101 C67.62 101 39.24 101 10 101 C9.01 104.96 8.02 108.92 7 113 C6.32536534 114.95715568 5.60647862 116.90064534 4.8125 118.8125 C1.705906 126.6116369 -1.00426967 134.53798011 -3.7421875 142.47265625 C-6.80372811 151.32358075 -9.90611535 160.16032958 -13 169 C-28.18 169 -43.36 169 -59 169 C-57.87638938 161.13472566 -57.87638938 161.13472566 -56.5390625 157.62890625 C-56.23798584 156.82356445 -55.93690918 156.01822266 -55.62670898 155.18847656 C-55.13086304 153.88861816 -55.13086304 153.88861816 -54.625 152.5625 C-51.31912988 143.70500311 -48.19304691 134.79955151 -45.15106201 125.84912109 C-38.90245527 107.4672818 -38.90245527 107.4672818 -35.5 99.0625 C-31.82713699 89.97652312 -28.83888119 80.65822148 -25.77249146 71.3553772 C-22.87233421 62.55972206 -19.91565594 53.80358156 -16.6394043 45.1394043 C-14.84309508 40.36191781 -13.14356712 35.5559362 -11.4921875 30.7265625 C-11.27146072 30.08158813 -11.05073395 29.43661377 -10.82331848 28.77209473 C-9.72608357 25.56140394 -8.63501346 22.34882401 -7.55053711 19.13378906 C-7.14843018 17.95268555 -6.74632324 16.77158203 -6.33203125 15.5546875 C-5.97858643 14.50780762 -5.6251416 13.46092773 -5.26098633 12.38232422 C-3.6944058 8.18030937 -1.82134439 4.09802488 0 0 Z " fill="#FBFBFB" transform="translate(749,676)"/>
<path d="M0 0 C15.18 0 30.36 0 46 0 C44.87528345 6.74829932 44.87528345 6.74829932 43.6171875 10.2578125 C43.34076416 11.03745361 43.06434082 11.81709473 42.77954102 12.62036133 C42.48104248 13.44689209 42.18254395 14.27342285 41.875 15.125 C41.23555694 16.92313436 40.59623738 18.72131265 39.95703125 20.51953125 C39.46710693 21.88972412 39.46710693 21.88972412 38.96728516 23.28759766 C37.48070529 27.45617473 36.02186143 31.63433398 34.5625 35.8125 C34.27681152 36.6279126 33.99112305 37.4433252 33.69677734 38.28344727 C32.13106066 42.75351195 30.57421226 47.22650113 29.02734375 51.703125 C25.59539432 61.62685416 22.12811646 71.53002329 18.43359375 81.35961914 C16.91714724 85.41545991 15.49153053 89.48997856 14.1328125 93.6015625 C11.96369928 100.16230051 9.66090255 106.67347918 7.34020996 113.18173218 C6.60755912 115.236412 5.87634614 117.29159866 5.14550781 119.34692383 C4.18692091 122.04262211 3.22792137 124.73817289 2.26855469 127.43359375 C0.75705032 131.68302712 -0.74914823 135.93429423 -2.25 140.1875 C-2.47179932 140.81487061 -2.69359863 141.44224121 -2.92211914 142.08862305 C-4.25432891 145.8631362 -5.57022941 149.6430413 -6.87890625 153.42578125 C-7.20020508 154.35173096 -7.52150391 155.27768066 -7.85253906 156.23168945 C-8.48069831 158.04315887 -9.10644678 159.85546652 -9.72949219 161.66870117 C-10.01083008 162.47927979 -10.29216797 163.2898584 -10.58203125 164.125 C-10.83186768 164.84945312 -11.0817041 165.57390625 -11.33911133 166.3203125 C-12 168 -12 168 -13 169 C-14.44289787 169.09295815 -15.89029785 169.11746513 -17.33618164 169.11352539 C-18.71750023 169.11341209 -18.71750023 169.11341209 -20.12672424 169.11329651 C-21.12775681 169.10813522 -22.12878937 169.10297394 -23.16015625 169.09765625 C-24.17975937 169.0962413 -25.19936249 169.09482635 -26.24986267 169.09336853 C-29.52077107 169.08775097 -32.79161213 169.0751955 -36.0625 169.0625 C-38.27408756 169.05748726 -40.48567618 169.05292396 -42.69726562 169.04882812 C-48.13153357 169.03777584 -53.56576197 169.02102063 -59 169 C-58.54188874 167.27738742 -58.08055447 165.55563182 -57.61791992 163.83422852 C-57.36137131 162.87533218 -57.10482269 161.91643585 -56.84049988 160.92848206 C-55.48080212 156.19100309 -53.72642196 151.61337881 -52 147 C-51.2190422 144.83593623 -50.44186735 142.67050451 -49.66796875 140.50390625 C-49.26562012 139.37871582 -48.86327148 138.25352539 -48.44873047 137.09423828 C-48.03252441 135.92876465 -47.61631836 134.76329102 -47.1875 133.5625 C-46.74809082 132.33257324 -46.30868164 131.10264648 -45.85595703 129.83544922 C-43.33649106 122.77413265 -40.83919675 115.70577625 -38.375 108.625 C-35.99646147 101.7903594 -33.54838262 94.98380474 -31.0625 88.1875 C-26.91326244 76.8356424 -22.94598363 65.42380646 -19 54 C-14.40975339 40.7167603 -9.75608867 27.46037834 -4.96899414 14.24658203 C-4.6105542 13.2564209 -4.25211426 12.26625977 -3.8828125 11.24609375 C-3.56715332 10.37654053 -3.25149414 9.5069873 -2.92626953 8.61108398 C-1.91271952 5.7539629 -0.95866702 2.87600106 0 0 Z " fill="#FBFBFB" transform="translate(673,676)"/>
<path d="M0 0 C0.6847641 -0.0049649 1.3695282 -0.00992981 2.07504272 -0.01504517 C4.34520466 -0.02967489 6.61529668 -0.03647066 8.88549805 -0.04199219 C10.46249901 -0.04774369 12.03949994 -0.05350142 13.61650085 -0.05926514 C16.92614061 -0.06977792 20.23575605 -0.07561853 23.54541016 -0.07910156 C27.78239203 -0.08458199 32.01905185 -0.10859896 36.25593281 -0.13707352 C39.51505972 -0.15571712 42.77410941 -0.16090644 46.03328514 -0.16243744 C47.59497015 -0.16546143 49.15665387 -0.17348147 50.71828651 -0.18662262 C52.90618838 -0.20371705 55.09330807 -0.20179487 57.28125 -0.1953125 C58.52542191 -0.19895813 59.76959381 -0.20260376 61.0514679 -0.20635986 C65.42769238 0.28346911 67.9707364 1.89122003 71.1472168 4.84863281 C74.05447354 10.51013278 72.08865457 17.21639005 70.2722168 22.97363281 C70.05106201 23.699375 69.82990723 24.42511719 69.60205078 25.17285156 C67.36416889 32.36106006 64.74958727 39.40700887 62.09643555 46.45019531 C60.40000382 50.95608122 58.79665083 55.49077029 57.2097168 60.03613281 C56.71812072 61.42306133 56.22594684 62.80978521 55.7331543 64.19628906 C54.81576751 66.77919218 53.92905477 69.3697846 53.0612793 71.96972656 C52.65651367 73.12601563 52.25174805 74.28230469 51.8347168 75.47363281 C51.4944043 76.48039063 51.1540918 77.48714844 50.8034668 78.52441406 C48.8491738 82.03278579 46.8404362 83.21982586 43.3347168 85.16113281 C39.79954529 85.68252563 39.79954529 85.68252563 35.84814453 85.71044922 C35.12378204 85.72067108 34.39941956 85.73089294 33.65310669 85.74142456 C31.2744991 85.76907638 28.89705907 85.76731562 26.51831055 85.76269531 C24.85734124 85.77047504 23.19637589 85.77914558 21.53541565 85.78866577 C18.06123934 85.80355831 14.58746968 85.80302996 11.11328125 85.79248047 C6.66516167 85.78087243 2.2187027 85.81480749 -2.22914219 85.86116982 C-5.65648595 85.8906522 -9.08342951 85.8923876 -12.51087761 85.88615036 C-14.15072873 85.88717573 -15.79060255 85.89763193 -17.43033028 85.9177742 C-19.724018 85.94250133 -22.01446827 85.92893687 -24.30810547 85.90576172 C-25.61127213 85.90702057 -26.91443878 85.90827942 -28.25709534 85.90957642 C-32.98939521 84.87035566 -34.00012329 83.12992986 -36.6652832 79.16113281 C-39.36158506 69.9068204 -34.01336587 59.64204347 -30.7277832 51.09863281 C-29.82610359 48.70265166 -28.92991293 46.30466744 -28.0342865 43.90641785 C-27.43484649 42.3021368 -26.83333889 40.69862678 -26.22975159 39.09590149 C-24.37968839 34.16342671 -22.63996098 29.20919235 -21.0090332 24.20019531 C-20.6183667 23.01176025 -20.2277002 21.8233252 -19.82519531 20.59887695 C-19.11352564 18.41003753 -18.41555025 16.21667962 -17.73388672 14.01831055 C-15.73997181 7.96637521 -14.05569094 4.6740652 -8.6652832 1.16113281 C-5.76813427 -0.28744165 -3.23671953 0.01779723 0 0 Z " fill="#FBFBFB" transform="translate(656.665283203125,856.8388671875)"/>
<path d="M0 0 C0.71256454 -0.0065712 1.42512909 -0.0131424 2.1592865 -0.01991272 C4.5165925 -0.03961739 6.87383488 -0.0513018 9.23120117 -0.0612793 C10.03737066 -0.06535482 10.84354015 -0.06943035 11.67413902 -0.07362938 C15.94095986 -0.0944778 20.20774864 -0.10878495 24.47460938 -0.11816406 C28.87633852 -0.12922751 33.277562 -0.16362979 37.67911243 -0.20333576 C41.06866888 -0.22950834 44.45810492 -0.23785643 47.84775352 -0.24144554 C49.47003279 -0.24630967 51.09230674 -0.25791879 52.71448708 -0.27648354 C54.98844879 -0.30089043 57.26110305 -0.29990792 59.53515625 -0.29296875 C60.82738602 -0.29883499 62.11961578 -0.30470123 63.45100403 -0.31074524 C67.57697798 0.26248852 69.74323199 1.58125338 72.96166992 4.17700195 C75.68360278 9.62086766 74.30839245 16.87869903 72.46166992 22.42700195 C71.88902141 23.98369627 71.31487026 25.53987687 70.72875977 27.09155273 C69.76196309 29.71993504 68.85646301 32.36707419 67.94995117 35.0168457 C64.77568255 44.27894901 64.77568255 44.27894901 63.66870117 47.4699707 C63.2120105 48.79291138 63.2120105 48.79291138 62.74609375 50.14257812 C61.96166992 52.17700195 61.96166992 52.17700195 60.96166992 53.17700195 C58.84485675 53.27121936 56.72486234 53.29442956 54.60595703 53.29052734 C53.94256821 53.29067337 53.27917938 53.2908194 52.59568787 53.29096985 C50.39343037 53.29027076 48.19125647 53.2824786 45.98901367 53.2746582 C44.46586656 53.27279401 42.94271885 53.27137011 41.41957092 53.27037048 C37.40329341 53.26654542 33.38705185 53.25671523 29.37078857 53.2456665 C25.27543626 53.23545214 21.18007816 53.23087281 17.0847168 53.22583008 C9.04368464 53.21509295 1.00268175 53.19801667 -7.03833008 53.17700195 C-7.36833008 56.80700195 -7.69833008 60.43700195 -8.03833008 64.17700195 C24.13666992 64.67200195 24.13666992 64.67200195 56.96166992 65.17700195 C53.58666992 75.30200195 53.58666992 75.30200195 51.77416992 80.23950195 C51.25790039 81.6490918 51.25790039 81.6490918 50.73120117 83.0871582 C50.47725586 83.77680664 50.22331055 84.46645508 49.96166992 85.17700195 C40.02582155 85.2697709 30.09007659 85.34080194 20.15388298 85.38425064 C15.53985141 85.40510621 10.92611663 85.43338658 6.31225586 85.47875977 C1.85779029 85.52229023 -2.5963902 85.54615434 -7.05105209 85.55651093 C-8.74870159 85.5638894 -10.44633587 85.57829801 -12.14386368 85.59992218 C-14.52585551 85.62905276 -16.90667644 85.63295406 -19.28881836 85.63110352 C-19.98725357 85.64548462 -20.68568878 85.65986572 -21.4052887 85.67468262 C-26.39732387 85.63284767 -29.17533574 84.26584151 -33.03833008 81.17700195 C-35.05743485 78.89736754 -35.98059188 77.34620049 -36.13208008 74.27856445 C-35.36536138 63.65951052 -30.42747466 53.48560032 -26.75341797 43.60498047 C-24.6849735 38.01493335 -22.72536933 32.39741007 -20.85083008 26.73950195 C-20.60365234 25.99531006 -20.35647461 25.25111816 -20.10180664 24.484375 C-19.01140229 21.18409922 -17.94625879 17.87993569 -16.91723633 14.55981445 C-13.82578819 4.72010793 -13.82578819 4.72010793 -10.03833008 1.17700195 C-6.5210746 0.00458346 -3.71294254 0.02833754 0 0 Z " fill="#FBFBFB" transform="translate(949.038330078125,856.822998046875)"/>
<path d="M0 0 C7.92 0 15.84 0 24 0 C23.25976684 3.70116582 22.48343371 6.63096017 21.15234375 10.08984375 C20.79462891 11.03923828 20.43691406 11.98863281 20.06835938 12.96679688 C19.31525537 14.94515818 18.55744857 16.92173575 17.79492188 18.89648438 C17.43849609 19.84716797 17.08207031 20.79785156 16.71484375 21.77734375 C16.38605225 22.63577881 16.05726074 23.49421387 15.71850586 24.37866211 C14.90530637 27.34547249 14.8772418 29.93775604 15 33 C20.23274388 33.02467917 25.46545403 33.04285003 30.69824219 33.05493164 C32.47917267 33.05996711 34.260099 33.06679581 36.04101562 33.07543945 C38.59766665 33.08753942 41.15426312 33.09323609 43.7109375 33.09765625 C44.50994476 33.10281754 45.30895203 33.10797882 46.13217163 33.11329651 C50.19691905 33.2133875 50.19691905 33.2133875 54 32 C54.85398129 30.17891749 54.85398129 30.17891749 55.55078125 27.94921875 C55.83493896 27.11036133 56.11909668 26.27150391 56.41186523 25.40722656 C56.70907471 24.5097168 57.00628418 23.61220703 57.3125 22.6875 C59.93167709 14.97230784 62.75354474 7.47668484 66 0 C73.59 0 81.18 0 89 0 C87.13313661 6.22287796 85.25260228 12.40769907 83.1875 18.5625 C82.92670654 19.34149658 82.66591309 20.12049316 82.3972168 20.9230957 C80.27252222 27.24219185 78.08278401 33.53589002 75.8359375 39.8125 C74.54708104 43.42427811 73.29658862 47.04808706 72.0594635 50.67790222 C71.10246739 53.47912657 70.13457351 56.27653176 69.1656189 59.07363892 C68.68430965 60.47096687 68.2075203 61.86986076 67.73550415 63.27035522 C67.06361759 65.26144638 66.37530329 67.24619105 65.68359375 69.23046875 C65.28712646 70.38957764 64.89065918 71.54868652 64.48217773 72.74291992 C61.9540562 78.29845763 58.59117935 82.3076844 53 85 C50.42954275 85.26890255 48.11127015 85.38104163 45.54760742 85.34057617 C44.8153595 85.34101425 44.08311157 85.34145233 43.32867432 85.34190369 C40.92066305 85.33982217 38.51335761 85.3165221 36.10546875 85.29296875 C34.43110026 85.28737051 32.75672685 85.28310149 31.08235168 85.28010559 C26.6846042 85.26867474 22.28715597 85.23922285 17.88952637 85.20599365 C13.3983973 85.17525473 8.90721967 85.1615921 4.41601562 85.14648438 C-4.38945994 85.11435133 -13.1946927 85.06317645 -22 85 C-20.63125844 78.04223041 -18.5466871 71.61396893 -16 65 C-15.32205887 64.99413376 -14.64411774 64.98826752 -13.94563293 64.98222351 C-6.88885465 64.91828421 0.16746781 64.83386255 7.22387695 64.73754883 C9.85727936 64.70429675 12.49075309 64.67626576 15.12426758 64.65356445 C18.90997711 64.62002471 22.69503289 64.5677068 26.48046875 64.51171875 C28.2463459 64.50213387 28.2463459 64.50213387 30.04789734 64.49235535 C31.14866104 64.47256119 32.24942474 64.45276703 33.38354492 64.43237305 C34.34951096 64.42126999 35.31547699 64.41016693 36.31071472 64.39872742 C39.52442662 63.92224578 41.40899892 62.94202363 44 61 C45.35980881 57.92438754 45.35980881 57.92438754 46 55 C45.41641724 55.00888245 44.83283447 55.01776489 44.23156738 55.0269165 C38.13169191 55.11573525 32.03200156 55.17587693 25.93164062 55.21972656 C23.65812716 55.23978317 21.3846649 55.26703538 19.11132812 55.30175781 C15.83450651 55.35053712 12.55836975 55.37302897 9.28125 55.390625 C7.76827332 55.42159271 7.76827332 55.42159271 6.22473145 55.45318604 C-0.98489394 55.45545407 -6.73082717 54.249752 -11.97265625 49.0390625 C-13.17525997 46.65214561 -13.43315222 45.04453923 -13.4375 42.375 C-13.45683594 41.59898437 -13.47617187 40.82296875 -13.49609375 40.0234375 C-12.89716603 36.37327958 -11.59611811 33.32844169 -10.17407227 29.92529297 C-7.93147618 24.33768925 -6.12938104 18.59272602 -4.25 12.875 C-3.83878906 11.63234375 -3.42757813 10.3896875 -3.00390625 9.109375 C-1.9998411 6.07382921 -0.99953257 3.03704128 0 0 Z " fill="#F9F9F9" transform="translate(1032,857)"/>
<path d="M0 0 C7.59 0 15.18 0 23 0 C20.75 10.125 20.75 10.125 19.0546875 14.69140625 C18.57491455 15.99766968 18.57491455 15.99766968 18.08544922 17.33032227 C17.68600098 18.39694092 17.28655273 19.46355957 16.875 20.5625 C15.59625 24.006875 14.3175 27.45125 13 31 C27.19 31 41.38 31 56 31 C56.99 26.545 56.99 26.545 58 22 C58.75951646 19.81419684 59.56830656 17.64455204 60.4375 15.5 C62.5077843 10.35998382 64.23622416 5.29132753 66 0 C73.59 0 81.18 0 89 0 C88.20328953 4.78026279 87.14438872 9.16235042 85.6875 13.75 C85.48705078 14.40226563 85.28660156 15.05453125 85.08007812 15.7265625 C83.95047987 19.32169255 82.69215088 22.82450958 81.265625 26.3125 C77.92864485 34.5224931 75.04159415 42.90540461 72.0625 51.25 C71.44873631 52.9649041 70.83480509 54.67974825 70.22070312 56.39453125 C68.47808295 61.26216972 66.73866884 66.13094902 65 71 C64.48162543 72.45117808 63.96323429 73.90235023 63.44482422 75.35351562 C62.29619795 78.56888508 61.14810195 81.78444311 60 85 C52.41 85 44.82 85 37 85 C37.74591413 79.7786011 38.47994915 76.18595732 40.28515625 71.41015625 C40.68871338 70.3312915 41.09227051 69.25242676 41.50805664 68.14086914 C42.02102295 66.79500732 42.53398926 65.44914551 43.0625 64.0625 C44.691875 59.751875 46.32125 55.44125 48 51 C33.81 51 19.62 51 5 51 C4.01 54.63 3.02 58.26 2 62 C1.34608685 64.04401697 0.67067386 66.0815315 -0.04296875 68.10546875 C-0.36031982 69.01192139 -0.6776709 69.91837402 -1.00463867 70.85229492 C-1.39498291 71.9529126 -1.78532715 73.05353027 -2.1875 74.1875 C-3.445625 77.755625 -4.70375 81.32375 -6 85 C-13.92 85 -21.84 85 -30 85 C-26.58536585 73.61788618 -26.58536585 73.61788618 -25 68.875 C-24.690625 67.94429687 -24.38125 67.01359375 -24.0625 66.0546875 C-23.05369616 63.15437647 -21.98167445 60.28274583 -20.89697266 57.41015625 C-18.93851026 52.14778804 -17.07252835 46.85150501 -15.1875 41.5625 C-14.74390137 40.32000488 -14.30030273 39.07750977 -13.84326172 37.79736328 C-11.93500595 32.44826427 -10.02968483 27.09831846 -8.15234375 21.73828125 C-7.88848877 20.98538818 -7.62463379 20.23249512 -7.3527832 19.45678711 C-6.68348088 17.54228161 -6.01736856 15.62666169 -5.3515625 13.7109375 C-3.67259677 9.10106048 -1.82208263 4.55520657 0 0 Z " fill="#FAFAFA" transform="translate(541,857)"/>
<path d="M0 0 C7.92 0 15.84 0 24 0 C23.22623995 3.86880026 22.34681158 7.02321462 20.96875 10.66796875 C20.57042969 11.72564453 20.17210937 12.78332031 19.76171875 13.87304688 C19.13716797 15.51370117 19.13716797 15.51370117 18.5 17.1875 C18.08363281 18.29287109 17.66726563 19.39824219 17.23828125 20.53710938 C14.16171288 28.67657425 14.16171288 28.67657425 13 31 C26.53 30.67 40.06 30.34 54 30 C55.32 24.72 56.64 19.44 58 14 C59.28179226 9.31591966 60.64013751 4.66238569 62 0 C69.92 0 77.84 0 86 0 C85.01 3.63 84.02 7.26 83 11 C82.70174316 12.10770752 82.40348633 13.21541504 82.09619141 14.35668945 C81.28854551 17.3465681 80.45747987 20.32944713 79.625 23.3125 C79.3465625 24.35728516 79.068125 25.40207031 78.78125 26.47851562 C76.68260704 33.91357276 74.59684935 38.60210043 68 43 C68.66 43.66 69.32 44.32 70 45 C70.84048544 51.74215498 68.44224208 57.57036053 66.25 63.875 C65.90195312 64.91269531 65.55390625 65.95039062 65.1953125 67.01953125 C63.08209927 73.22611677 60.68499366 78.95876426 58 85 C50.41 85 42.82 85 35 85 C36.12189263 77.14675162 36.12189263 77.14675162 37.8828125 72.8984375 C38.24503906 71.99609375 38.60726562 71.09375 38.98046875 70.1640625 C39.74736119 68.29525294 40.51823751 66.42807356 41.29296875 64.5625 C41.65261719 63.66273438 42.01226563 62.76296875 42.3828125 61.8359375 C42.88385498 60.62236572 42.88385498 60.62236572 43.39501953 59.38427734 C44.28941411 56.57827773 44.28941411 56.57827773 43 52 C30.79 52 18.58 52 6 52 C4.741875 55.774375 3.48375 59.54875 2.1875 63.4375 C-0.20833333 70.625 -2.60416667 77.8125 -5 85 C-13.25 85 -21.5 85 -30 85 C-23.03925017 63.62055409 -15.44173845 42.51371205 -7.70507812 21.40518188 C-5.09714614 14.28388064 -2.5379318 7.14654052 0 0 Z " fill="#FAFAFA" transform="translate(840,857)"/>
<path d="M0 0 C1.11234512 -0.00021904 1.11234512 -0.00021904 2.24716187 -0.0004425 C4.70370385 0.00025539 7.16017045 0.00804206 9.61669922 0.01586914 C11.31777912 0.01773376 13.01885956 0.01915745 14.71994019 0.02015686 C19.20145139 0.02397861 23.68293029 0.03380599 28.16442871 0.04486084 C32.73575402 0.05508231 37.30708453 0.05965606 41.87841797 0.06469727 C50.85108843 0.07542854 59.82373489 0.09250088 68.79638672 0.11352539 C67.42764516 7.07129498 65.34307382 13.49955646 62.79638672 20.11352539 C62.10147629 20.11939163 61.40656586 20.12525787 60.69059753 20.13130188 C54.14262663 20.1891988 47.59498283 20.26125766 41.04734325 20.3492403 C37.68108195 20.3939738 34.31494248 20.43322278 30.94848633 20.45996094 C27.07846951 20.49341519 23.20910225 20.54572791 19.33935547 20.60180664 C17.52518379 20.61139153 17.52518379 20.61139153 15.67436218 20.62117004 C14.55342667 20.6409642 13.43249115 20.66075836 12.27758789 20.68115234 C11.28941574 20.6922554 10.30124359 20.70335846 9.28312683 20.71479797 C6.37103991 21.1817261 5.53168582 21.77201772 3.79638672 24.11352539 C2.72414407 26.61651403 1.77163077 29.06769879 0.87841797 31.63305664 C0.61631027 32.36924728 0.35420258 33.10543793 0.08415222 33.86393738 C-0.46713432 35.41999093 -1.0140498 36.97759906 -1.55688477 38.53662109 C-2.38608049 40.91161042 -3.23423215 43.27920392 -4.08447266 45.64672852 C-4.61883602 47.16259606 -5.15207622 48.67886009 -5.68408203 50.19555664 C-5.93715622 50.89888626 -6.19023041 51.60221588 -6.45097351 52.32685852 C-7.93850137 56.65312841 -8.20361328 59.36161746 -8.20361328 64.11352539 C9.61638672 64.44352539 27.43638672 64.77352539 45.79638672 65.11352539 C43.54638672 75.23852539 43.54638672 75.23852539 41.67138672 80.17602539 C41.31818359 81.11575195 40.96498047 82.05547852 40.60107422 83.02368164 C40.33552734 83.71333008 40.06998047 84.40297852 39.79638672 85.11352539 C30.90363847 85.22953423 22.01115191 85.31829826 13.1178112 85.37258625 C8.98793628 85.39864608 4.85858023 85.43397664 0.72900391 85.49072266 C-3.25864615 85.54517356 -7.24579813 85.57497311 -11.23379135 85.58791161 C-12.75284539 85.59712823 -14.2718731 85.61512677 -15.79071426 85.64217567 C-17.92389401 85.67864373 -20.05503371 85.6834639 -22.18847656 85.68115234 C-23.40093048 85.6922554 -24.6133844 85.70335846 -25.86257935 85.71479797 C-30.34437351 84.90822731 -31.98491132 83.28987158 -35.20361328 80.11352539 C-37.61834002 75.28407191 -36.62632764 69.65540574 -35.24902344 64.6315918 C-33.91045227 60.69886665 -32.48773277 56.81029034 -31.01611328 52.92602539 C-30.28282496 50.946658 -29.55414204 48.96563505 -28.82565308 46.98449707 C-28.3408123 45.66731816 -27.8540979 44.35082739 -27.36550903 43.03503418 C-24.80585651 36.11723954 -22.51159745 29.11867618 -20.20361328 22.11352539 C-19.2339304 19.22674335 -18.23657648 16.35319658 -17.20361328 13.48852539 C-16.87103516 12.50819336 -16.87103516 12.50819336 -16.53173828 11.50805664 C-13.33033325 2.7041928 -8.8442966 -0.04520148 0 0 Z " fill="#FAFAFA" transform="translate(754.20361328125,856.886474609375)"/>
<path d="M0 0 C0.79148437 -0.0033284 1.58296875 -0.0066568 2.3984375 -0.01008606 C4.07291075 -0.01515165 5.7473941 -0.0174945 7.421875 -0.01733398 C9.98975135 -0.01952252 12.55719959 -0.03768734 15.125 -0.05664062 C16.74999853 -0.05957416 18.3749991 -0.06155922 20 -0.0625 C21.15628906 -0.07327827 21.15628906 -0.07327827 22.3359375 -0.08427429 C27.7711728 -0.06085845 27.7711728 -0.06085845 30 2.16796875 C29.63347551 7.25324993 28.27854354 11.91379153 26.63671875 16.7109375 C26.4034639 17.40181961 26.17020905 18.09270172 25.92988586 18.80451965 C25.43804777 20.25352284 24.94289823 21.70140589 24.44458008 23.14819336 C23.6874481 25.35562007 22.94982575 27.56896446 22.21289062 29.78320312 C21.7303426 31.19701649 21.24665733 32.61044232 20.76171875 34.0234375 C20.43647469 35.00947212 20.43647469 35.00947212 20.10466003 36.01542664 C18.72348567 39.95290489 17.51388621 42.82441233 14 45.16796875 C10.98301461 45.52907656 8.34170526 45.65901163 5.33203125 45.59375 C4.07890388 45.58881783 4.07890388 45.58881783 2.80046082 45.58378601 C1.03950174 45.57338172 -0.72142346 45.55345972 -2.48217773 45.5246582 C-5.18817817 45.48045767 -7.89329212 45.46320432 -10.59960938 45.45117188 C-12.30990874 45.43775301 -14.02019712 45.42283148 -15.73046875 45.40625 C-16.54396286 45.39886307 -17.35745697 45.39147614 -18.19560242 45.38386536 C-23.88169923 45.28626952 -23.88169923 45.28626952 -25 44.16796875 C-24.71106191 36.47396028 -22.40348317 29.5827212 -19.87182617 22.37353516 C-19.18562671 20.41261553 -18.52076837 18.4453142 -17.85742188 16.4765625 C-17.42052855 15.21180442 -16.98241938 13.94746555 -16.54296875 12.68359375 C-16.15133545 11.55211914 -15.75970215 10.42064453 -15.35620117 9.25488281 C-11.78619899 1.12903086 -8.33719842 0.0120357 0 0 Z " fill="#030303" transform="translate(672,876.83203125)"/>
<path d="M0 0 C0.83208984 0.00091644 1.66417969 0.00183289 2.52148438 0.0027771 C4.28000597 0.00881666 6.03851711 0.02457343 7.796875 0.04931641 C10.48996852 0.0858016 13.18168527 0.09033595 15.875 0.08984375 C17.58334523 0.09967587 19.29168114 0.11133328 21 0.125 C21.80630859 0.12722565 22.61261719 0.12945129 23.44335938 0.13174438 C27.30183438 0.19731155 29.21739229 0.27253236 32.5 2.4609375 C31.625 10.0859375 31.625 10.0859375 30.5 13.4609375 C15.98 13.4609375 1.46 13.4609375 -13.5 13.4609375 C-10.46722281 -0.18655984 -10.46722281 -0.18655984 0 0 Z " fill="#0A0A0A" transform="translate(963.5,876.5390625)"/>
<path d="M0 0 C99.99 0 199.98 0 303 0 C302.67 0.66 302.34 1.32 302 2 C301.05009198 1.99829126 301.05009198 1.99829126 300.08099389 1.996548 C262.57053562 1.92945293 225.0600862 1.87796015 187.54958023 1.84680401 C183.04835287 1.84305177 178.54712562 1.83916882 174.04589844 1.83520508 C173.14976325 1.83441815 172.25362806 1.83363122 171.33033726 1.83282044 C156.80920222 1.81975695 142.28810272 1.79609792 127.76698878 1.76854161 C112.87340825 1.74051364 97.97984636 1.72382927 83.08624053 1.71773452 C73.89179445 1.71361265 64.69744879 1.70058157 55.50303361 1.6762506 C49.2030339 1.66042558 42.9030863 1.65559228 36.60306814 1.65949587 C32.96512497 1.66142248 29.32735762 1.65841357 25.6894455 1.64238358 C21.74962396 1.62514955 17.81003344 1.6310158 13.87017822 1.63923645 C12.13672854 1.62612866 12.13672854 1.62612866 10.36825967 1.61275607 C8.78878537 1.62171579 8.78878537 1.62171579 7.1774025 1.63085651 C5.81268763 1.62914777 5.81268763 1.62914777 4.42040277 1.62740451 C1.54814292 2.06955863 0.15639195 3.10020678 -2 5 C-1.34 3.35 -0.68 1.7 0 0 Z " fill="#E8E8E8" transform="translate(749,676)"/>
<path d="M0 0 C0.66 0.33 1.32 0.66 2 1 C0.68 4.96 -0.64 8.92 -2 13 C-5 9 -5 9 -4.9609375 6.89453125 C-4.76757812 6.20746094 -4.57421875 5.52039063 -4.375 4.8125 C-4.10816406 3.77029297 -4.10816406 3.77029297 -3.8359375 2.70703125 C-3.56007813 2.14371094 -3.28421875 1.58039062 -3 1 C-2.01 0.67 -1.02 0.34 0 0 Z " fill="#1B1B1B" transform="translate(1023,879)"/>
<path d="M0 0 C6.27 0 12.54 0 19 0 C19 0.33 19 0.66 19 1 C17.81921875 1.03738281 16.6384375 1.07476563 15.421875 1.11328125 C13.86455212 1.17895149 12.30726186 1.24539847 10.75 1.3125 C9.97269531 1.33505859 9.19539062 1.35761719 8.39453125 1.38085938 C4.06020907 1.58460956 1.21958895 1.77175624 -2 5 C-1.34 3.35 -0.68 1.7 0 0 Z " fill="#E1E1E1" transform="translate(749,676)"/>
<path d="M0 0 C0.33 0.99 0.66 1.98 1 3 C-0.9375 6.1875 -0.9375 6.1875 -3 9 C-4 6 -4 6 -3.1875 3.375 C-2 1 -2 1 0 0 Z " fill="#363636" transform="translate(499,795)"/>
<path d="M0 0 C1.25541557 3.76624671 0.37061958 5.37188934 -1 9 C-1.12375 8.360625 -1.2475 7.72125 -1.375 7.0625 C-1.684375 6.0415625 -1.684375 6.0415625 -2 5 C-2.66 4.67 -3.32 4.34 -4 4 C-2.68 2.68 -1.36 1.36 0 0 Z " fill="#2F2F2F" transform="translate(448,808)"/>
</svg>
